<?xml version="1.0" encoding="UTF-8"?>
<svg id="bird" xmlns="http://www.w3.org/2000/svg"  xmlns:xlink="http://www.w3.org/1999/xlink" viewBox="0 0 300 300">
  <defs>
    <linearGradient id="linear-gradient" x1="103.878" y1="110.157" x2="92.464" y2="100.915" gradientUnits="userSpaceOnUse">
      <stop offset=".104" stop-color="#6b5f4f"/>
      <stop offset=".178" stop-color="#64594a"/>
      <stop offset=".282" stop-color="#52483c"/>
      <stop offset=".404" stop-color="#342e27"/>
      <stop offset=".443" stop-color="#29241f"/>
    </linearGradient>
    <clipPath id="clippath">
      <path d="m138.044,129.363c-.118-.223-.265-.431-.424-.631-.017-.035-.029-.071-.047-.105-.152-.287-.342-.554-.559-.801.053-.641-.05-1.306-.293-1.86-.112-.584-.351-1.121-.717-1.488-1.205-1.205-4.136-2.187-5.549-2.528l-.331.848c-.023-.03-.043-.063-.067-.093-.47-.55-1.18-1-1.94-1.36-.227.097-.529.185-.865.266-.479-.173-.93-.314-1.285-.416l-.229.697c-.439.065-.864.118-1.237.158-.43-.463-.975-.798-1.574-.982-1.102-.34-2.604-.15-3.862.123-.002-.001-.003-.003-.005-.004-.887-.563-2.893-.489-4.476-.392-.021-.023-.039-.049-.06-.072-.411-.45-.993-.792-1.66-1.072-.017-.023-.039-.044-.057-.067-.126-.44-.473-.779-.912-1.048-.009-.012-.017-.025-.027-.036-.015-.019-.035-.035-.051-.053-.092-.14-.19-.277-.295-.408-.885-1.112-2.631-1.614-4.356-2.024l-.762,1.792c-.142-.092-.284-.184-.427-.274l-.972,1.137c-1.115-.509-2.622-.466-4.119-.337-.431-.801-1.051-1.596-1.689-2.363l-4.638,2.69c.055.186.111.353.166.527l-.166.096c.37,1.247.702,2.19,1.548,3.21.713.859,1.457,1.249,2.176,1.356.061.205.118.409.206.626.138.341.298.628.469.88l-.947.627c.047.166.095.316.143.469l-.143.094c.081.287.165.547.254.798l-.282.215c.068.158.135.297.202.446l-.202.154c.184.425.366.808.555,1.175-.029.711.019,1.406.233,2.2.224.827.573,1.424.992,1.857.54.852,1.283,1.282,2.07,1.448.011.002.021.002.032.004.382.673.84,1.259,1.521,1.8.029.023.059.039.088.062l-.386.352c.14.212.275.405.411.595l-.058.053c.271.408.528.763.799,1.095l-.839,2.796c.064.539.059.44.129.971.378.527,1.16,1.005,1.771,1.136.001-.339.003-.824.003-.824.552.444,1.245.711,1.952.752.069-.378.113-.757.159-1.135.704.219,1.425.383,2.155.504,1.159.193,2.362-.365,3.048-1.222.191.036.381.079.573.111,1.628.271,3.336-.693,4.018-2.026.069-.135.113-.257.169-.385.737.212,1.487.376,2.246.502,1.368.227,2.784-.422,3.609-1.423,1.306.526,2.672.954,4.091.977,1.628.027,3.346-.552,4.263-1.787.537-.722.74-1.619.644-2.491.014-.132.021-.265.02-.398.426.074.856.123,1.291.13,1.628.027,3.346-.552,4.263-1.787.823-1.107.876-2.627.238-3.832Z" fill="none" stroke-width="0"/>
    </clipPath>
  </defs>
  <g id="hummingbird__tail">
    <path d="m213.339,272.774c-1.145-3.149-9.541-20.609-9.541-20.609l1.272-1.399s-.382-3.816-3.308-11.449c-1.018-8.396-7.823-32.888-11.785-44.05-3.047-8.585-15.169-31.444-19.727-41.838-1.368-3.12-14.359-16.1-21.438-12.688-16.65,8.025-33.781,42.797-8.4,68.527,5.346,3.601,12.881,7.596,19.751,10.332,3.612,5.892,7.427,10.446,11.704,11.958,6.607,8.523,12.663,14.36,17.81,15.775,2.911,6.158,7.898,12.562,13.867,19.082,0,0,2.29,3.308,3.435,2.926s1.018-2.29,1.018-2.29c0,0,1.654,1.908,2.926,4.071,1.272,2.163,3.562,4.803,2.417,1.654Z" fill="#251810" stroke-width="0"/>
    <path d="m193.451,231.118c.401-.277.802-.555,1.203-.832.376.401.753.802,1.129,1.203,1.583-5.445,1.008-11.228.168-16.867-2.061-7.356-4.278-14.577-5.974-19.356-3.047-8.585-15.169-31.444-19.727-41.838-1.368-3.12-14.359-16.1-21.438-12.688-10.549,5.084-21.287,20.907-21.287,38.364,2.195,9.221,6.557,17.874,13.375,24.383,9.791,9.347,25.047,13.405,37.476,8.042l-.059-.966,2.44,4.157.962-1.007c-.575,1.617.786,3.598,2.502,3.641,2.875,2.615,5.75,5.231,8.625,7.846.202,1.973.404,3.946.606,5.918Z" fill="#9ad875" stroke-width="0"/>
    <path d="m196.013,249.657c-.57,1.04-2.02,1.31-3.14.93-.93-.31-1.68-.95-2.38-1.64-.29-.54-.57-1.08-.82-1.62-5.14-1.41-11.2-7.25-17.81-15.77-4.27-1.51-8.09-6.07-11.7-11.96-6.87-2.74-14.41-6.73-19.75-10.33-1.95-1.98-3.65-4.01-5.12-6.08.51-1.06,1.18-2.05,2.04-2.9,2.21-2.2,5.31-3.27,8.36-3.89,8.98-1.85,18.6-.41,26.65,3.99,2.7,1.48,5.39,3.49,6.33,6.42.87,2.68.12,5.69,1.05,8.35.74,2.15,2.47,3.77,3.91,5.54,2.87,3.53,4.65,7.8,6.39,12,1.89,4.55,3.78,9.1,5.67,13.65.44,1.06.88,2.3.32,3.31Z" fill="#a88255" stroke-width="0"/>
    <path d="m165.398,196.66c2.52-.263,5.14.725,6.859,2.586l-2.372.152c2.352.441,4.577,1.543,6.353,3.147l-2.079-.1,1.199,1.246-1.826.057,1.109,1.711-2.911.156.924,3.355-.966.109-.026,2.406-1.434-.403.198.981-1.716.053.697,1.807-2.568.104,1.325,1.896c-2.502.358-5.114-.096-7.349-1.277l.413,1.814-3.26-2.21-.984,2.021-.351-1.959c-.282.482-.915.727-1.448.56s-.914-.728-.871-1.285l-2.563.993-.245-2.711-2.259.183c-.779-1.617-2.995-1.692-4.649-2.389-1.815-.765-3.105-2.467-3.816-4.304s-.917-3.825-1.117-5.785l25.733-2.916Z" fill="#ba9561" stroke-width="0"/>
    <g opacity=".4">
      <path d="m189.977,195.265c-3.047-8.585-15.169-31.444-19.727-41.838-1.368-3.12-14.359-16.1-21.438-12.688-4.816,2.321-9.668,6.885-13.523,12.816-1.484,16.628,10.087,32.555,22.336,43.985,16.461,15.36,25.635,1.338,34.859,5.33-.899-2.881-1.754-5.484-2.507-7.605Z" fill="#33140f" stroke-width="0"/>
    </g>
  </g>
  <g id="hummingbird__wing">
    <path d="m148.667,170.674c4.579,6.147,12.205,13.236,20.059,13.46,2.825.081,5.894-1.239,6.783-3.922.892,1.296,3.075,1.008,4.059-.22.984-1.229,1.027-2.964.765-4.515-.293-1.736-.911-3.416-1.813-4.927l10.283-22.841c-9.607-21.196-46.619-6.979-46.584,3.168.014,4.153,1.868,13.651,6.448,19.798Z" fill="#ad9490" stroke-width="0"/>
    <path d="m166.882,156.445c6.548,7.809,9.764,14.429,12.815,16.616-.311-.872-.702-1.716-1.177-2.511l-11.427-14.269-.211.165Z" fill="#856e5c" stroke-width="0"/>
    <path d="m166.881,156.446c7.587,8.47,10.914,15.425,14.479,15.788,5.171.527,8.161-7.332,10.063-9.361,1.023-1.092-6.628-5.855-17.784-11.706l-6.758,5.279Z" fill="#ad9490" stroke-width="0"/>
    <path d="m167.793,155.733c7.956,8.457,12.867,13.921,16.595,15.809,3.368-1.897,5.54-7.075,7.034-8.669,1.023-1.092-6.628-5.855-17.784-11.706l-5.845,4.566Z" fill="#856e5c" stroke-width="0"/>
    <path d="m167.907,155.644c9.905,9.449,15.354,14.967,19.343,15.373,5.171.527,9.797-8.8,11.699-10.829,1.097-1.17-7.771-6.558-20.239-12.982l-10.802,8.438Z" fill="#ad9490" stroke-width="0"/>
    <path d="m169.051,154.751c.636.705,1.156,1.301,1.462,1.62,10.577,11.018,15.916,13.946,18.943,13.917.349-.003.673-.04.98-.099,1.525-.905,2.951-2.424,4.208-4.028.789-1.712,1.328-3.498,2.222-4.367.612-.595.666-2.276-1.01-4.853-3.518-2.42-9.688-5.892-17.147-9.735l-9.658,7.545Z" fill="#856e5c" stroke-width="0"/>
    <path d="m173.522,151.258c11.002,10.449,15.295,15.98,19.51,16.409,5.171.527,14.383-3.408,16.284-5.437,1.224-1.307-11.25-9.077-27.255-17.643l-8.54,6.671Z" fill="#ad9490" stroke-width="0"/>
    <path d="m173.977,150.903c1.733,1.374,3.409,2.847,4.601,4.027,8.518,8.432,13.621,11.476,17.326,12.651,5.169-.652,11.827-3.658,13.412-5.35,1.224-1.306-11.251-9.077-27.255-17.643l-8.084,6.315Z" fill="#856e5c" stroke-width="0"/>
    <path d="m175.566,149.661c1.333.967,2.671,1.978,4.022,3.042,11.995,9.454,18.069,14.115,22.319,14.157,5.197.051,14.01-4.712,15.718-6.906,1.2-1.543-14.563-9.262-33.442-17.023l-8.616,6.731Z" fill="#ad9490" stroke-width="0"/>
    <path d="m177.321,148.291c3.152,1.812,5.504,3.818,8.25,6.118,11.243,9.421,16.484,11.912,20.729,11.706,4.755-1.419,10.043-4.514,11.325-6.162,1.2-1.543-14.563-9.262-33.442-17.023l-6.862,5.361Z" fill="#856e5c" stroke-width="0"/>
    <path d="m179.734,146.405c3.063,1.646,6.148,3.476,9.306,5.546,12.774,8.372,19.231,12.486,23.469,12.157,5.182-.403,13.546-5.915,15.055-8.251,1.154-1.784-18.288-9.089-39.934-15.62l-7.896,6.168Z" fill="#ad9490" stroke-width="0"/>
    <path d="m180.215,146.03c4.362,2.02,8.879,4.602,13.28,7.002,12.031,6.562,17.597,10.499,24.917,9.255,4.114-1.926,8.148-4.877,9.152-6.43,1.154-1.784-18.288-9.089-39.934-15.62l-7.416,5.793Z" fill="#856e5c" stroke-width="0"/>
    <path d="m181.805,144.787c4.823,1.626,9.68,3.615,14.766,6.119,13.702,6.747,22.616,9.133,26.782,8.289,5.094-1.033,10.718-6.619,11.931-9.121.985-2.032-21.871-7.404-45.747-11.326l-7.732,6.04Z" fill="#ad9490" stroke-width="0"/>
    <path d="m185.316,142.045c4.631,1.812,9.124,3.99,15.41,6.886,14.894,6.861,19.657,9.977,26.362,8.811,3.831-2.116,7.278-5.774,8.196-7.668.985-2.032-21.871-7.404-45.747-11.326l-4.221,3.297Z" fill="#856e5c" stroke-width="0"/>
    <path d="m192.249,136.629c-.624.379-1.083.968-1.713,1.338l-3.134,2.448c5.603,1.757,11.209,3.98,17.124,6.893,13.702,6.747,22.616,9.133,26.782,8.289,5.094-1.033,10.718-6.619,11.931-9.121,1.01-2.085-23.079-7.689-47.616-11.631-1.06.683-2.299,1.132-3.374,1.785Z" fill="#ad9490" stroke-width="0"/>
    <path d="m192.249,136.629c-.624.379-1.083.968-1.713,1.338l-3.136,2.45c.649.205,1.299.41,1.949.626,5.55,1.296,11.056,2.699,17.045,5.238,14.804,6.279,20.788,9.686,28.122,7.398,2.159-.674,4.402-2.274,6.338-4.079,1.142-1.191,1.995-2.319,2.386-3.126,1.01-2.085-23.079-7.689-47.616-11.631-1.06.683-2.299,1.132-3.374,1.785Z" fill="#856e5c" stroke-width="0"/>
    <path d="m196.374,133.407c-.648.44-1.188,1.017-1.845,1.442l-5.839,4.561c6.455,1.375,12.906,3.315,19.815,6.102,14.164,5.713,23.231,7.432,27.322,6.281,5.003-1.408,10.198-7.395,11.222-9.981.878-2.218-25.179-6.336-50.675-8.405Z" fill="#ad9490" stroke-width="0"/>
    <path d="m196.374,133.407c-.648.44-1.188,1.017-1.845,1.442l-3.548,2.772c8.523,1.56,15.009,3.957,24.828,7.663,11.057,4.173,16.629,6.733,22.093,5.678,4.285-2.173,8.266-6.92,9.148-9.148.878-2.218-25.179-6.336-50.675-8.405Z" fill="#856e5c" stroke-width="0"/>
    <path d="m201.368,129.506c-.306.258-.633.488-.941.735-1.877,1.506-3.662,3.131-5.685,4.441,9.849,1.29,19.195,3.605,29.545,7.78,14.164,5.713,23.231,7.432,27.322,6.281,5.003-1.408,10.198-7.395,11.222-9.981,1.003-2.532-33.127-7.591-61.464-9.256Z" fill="#ad9490" stroke-width="0"/>
    <path d="m201.368,129.506c-.306.258-.633.488-.941.735-1.877,1.506-3.662,3.131-5.685,4.441,1.539.202,3.08.46,4.6.713,11.886.589,21.461,4.331,35.835,7.55,14.538,3.255,19.995,2.732,23.352,1.42,2.141-2.044,3.775-4.273,4.302-5.603,1.003-2.532-33.127-7.591-61.464-9.256Z" fill="#856e5c" stroke-width="0"/>
    <path d="m201.972,129.034c-.496.435-1.041.802-1.545,1.207-1.796,1.442-3.509,2.991-5.44,4.25,16.105-1.578,29.521-1.368,45.788,2.633,14.831,3.648,24.253,4.466,27.937,2.345,2.4-1.382,5.256-4.791,5.903-7.495.809-3.381,1.91-5.502,2.591-6.504.323-.475-46.169-.155-75.234,3.565Z" fill="#ad9490" stroke-width="0"/>
    <path d="m201.972,129.034c-.496.435-1.041.802-1.545,1.207-1.796,1.442-3.509,2.991-5.44,4.25,5.032-.493,9.832-.773,14.503-.861,15.147-.73,32.279.291,49.454,2.306,6.956.816,11.269.674,15.358-3.01.128-.323.238-.643.312-.952.809-3.381,1.91-5.502,2.591-6.504.323-.475-46.169-.155-75.234,3.565Z" fill="#856e5c" stroke-width="0"/>
    <path d="m265.18,116.081c-12.476-1.446-26.457,1.235-38.824,3.425-2.829.501-9.854,2.19-17.684,4.294l-4.57,3.57c-1.079,1.142-2.481,1.913-3.676,2.871-.299.24-.603.475-.907.709,19.546-1.115,40.017-3.165,58.857-1.093,8.595.945,17.415-.104,23.355-.473,4.002-.249,11.182-3.22,9.989-4.482-3.764-3.984-12.432-7.185-26.54-8.82Z" fill="#ad9490" stroke-width="0"/>
    <path d="m208.493,125.064c-.143.92-.24,2.09-1.562,2.739,2.545.012,2.385,5.645-.231,7.385.486,1.465-2.937,4.319-5.478,4.059.751,1.399-2.383,4.617-3.862,4.217-.111.59-2.169,2.942-4.717,2.46-.247.975-2.131,1.977-3.841,1.784-.667,1.279-3.279,2.437-5.163,1.815-.559.92-2.146,1.895-3.13,1.967-.764.683-2.273,1.46-3.481,1.355-.028.715-.574,1.979-2.567,1.991.078.41-10.216-2.054-5.17-7.204,8.659-8.838,35.149-22.69,39.203-22.568Z" fill="#7a5835" stroke-width="0"/>
    <path d="m153.259,140.223c2.175-2.167,5.052-3.501,7.989-4.395s5.98-1.387,8.959-2.128c6.275-1.56,12.218-4.203,18.32-6.342,6.102-2.139,13.55-4.009,19.965-3.817-.143.92-.24,2.09-1.562,2.739,2.564.378,2.472,7.309-.231,7.385,1.651,1.467-1.695,4.322-5.478,4.059,1.248,1.702-1.142,5.375-3.862,4.217.321.803-1.563,3.327-4.717,2.46,1.228,1.583-1.17,3.072-4.399,2.099.24,1.728-2.484,2.478-4.605,1.5.639,1.14-1.038,2.099-3.13,1.967-.19,1.475-1.946,1.911-3.481,1.355.403.673-.14,1.937-2.567,1.991.211,1.114-.027,3.188-.89,3.924s-1.977,1.11-3.085,1.352c-5.283,1.156-11.36-.273-14.96-4.309-4.949-5.549-2.267-14.058-2.267-14.058Z" fill="#8c6c5d" stroke-width="0"/>
    <path d="m199.933,133.567c-.8.6-1.81.83-2.8.95-1.32,2.37-4.13,3.83-6.84,3.54-.84,1.6-2.98,2.38-4.66,1.7-1.44,1.6-3.6,2.53-5.75,2.46-2.4.68-4.36,2.71-4.96,5.13-.27,1.06-.3,2.22-.88,3.15-.59.93-2.06,1.43-2.77.59.27.46.53.92.8,1.37-.77-.24-1.54-.48-2.31-.72.38.64.75,1.28,1.13,1.92-4.84-4.78-11.58-7.49-18.35-7.6-.1-3.25.72-5.83.72-5.83,2.17-2.17,5.05-3.5,7.99-4.4,2.93-.89,5.98-1.39,8.96-2.13,4.33-1.08,8.51-2.67,12.69-4.26.77-.09,1.53-.19,2.3-.28,3.28-.4,6.56-.8,9.84-1.21.8-.1,1.63-.19,2.39.09.75.27,1.39,1.05,1.23,1.84.85-.53,2.08.12,2.34,1.08.26.97-.27,2.01-1.07,2.61Z" fill="#a7a24e" stroke-width="0"/>
  </g>
  <g id="hummingbird__body">
    <path d="m151.732,165.432c3.835,2.419,7.67,4.837,11.506,7.255l-.152-4.044,1.868,1.02-.831-3.261,7.68.443-2.966-3.863c.772.017,1.544.033,2.316.05-1.682-2.804-3.365-5.607-5.047-8.411-1.173-1.955-2.346-3.91-3.52-5.865-1.84-3.066-3.791-6.248-6.83-8.131s-9.745-.177-12.739,4.48c-4.109,6.391-2.37,12.011,8.715,20.327Z" fill="#cab967" stroke-width="0"/>
    <path d="m158.442,152.56c.511-.748,1.124-2.071.994-3.111-.21-1.69-.833-3.234-.833-3.234,0,0,.784-.522,1.147-1.79-.203-.267-.637-.771-.631-.777-.976-1.169-2.066-2.218-3.364-3.022-1.312-.813-3.308-.948-5.393-.474-.02.005-.04.009-.06.014-.755.176-9.656,16.951,1.429,25.267.799.504,1.528-2.175,2.088-2.985,2.28.86,5.192.455,6.092-1.815.9-2.27.073-6.06-1.469-8.073Z" fill="#846338" stroke-width="0"/>
    <path d="m144.929,217.991c.134,1.13.32,2.037,1.058,2.718.841.776,2.227.805,3.369.733-.514-.192-1.542-.476-2.143-1.095s-.389-1.417-.196-2.15c1.394,1.864,2.663,2.999,4.912,3.515,2.454.564,4.375-.565,5.107-1.895-1.5.927-2.54.877-3.033.877-1.208,0-1.919-.456-2.413-.757-.699-.427-.992-.92-.825-1.474,1.261.465,2.554.989,3.885.796s3.061-1.34,2.971-2.682c-1.438,1.087-3.245,1.511-5.051.027-1.393-1.145-2.754-2.14-2.74-3.943.008-.978.298-2.021-.144-2.893-.438-.865-1.453-1.255-2.4-1.463-1.392-.305-2.835-.373-4.25-.208-.674.079-1.462.161-2.093.422-.854.354-.566.541-.166,1.325,1.384,2.715,2.768,5.431,4.152,8.147Z" fill="#23160e" stroke-width="0"/>
    <path d="m157.526,138.946c-2.771,1.227-6.27-1.24-7.897-1.363-5.757-7.046-11.682-10.455-12.583-10.95l-32.244,11.736c-.265,6.122.959,13.253,2.92,20.212,2.044,7.257,4.87,14.314,7.581,19.804,7.584,15.359,17.913,25.487,17.913,25.487,3.102,5.354,7.875,9.23,7.875,9.23,0,0,.652-.621.372-1.614,1.324-.083,4.126,1.302,4.315,1.055,1.42-1.85.872-3.412.265-3.898,1.306.494,6.832.417,10.712-.923,1.96.27,3.96.28,5.92.05,1.19-.15,2.46-.44,3.22-1.35.76-.92.59-2.63-.55-2.98,1.04.01,2.04-.69,2.39-1.66.36-.97.03-2.15-.77-2.81,1.23-1.16.65-3.59-.97-4.06.79-1.53.22-3.62-1.23-4.53,1.23-.95,1.9-2.58,1.7-4.12-.2-1.54-1.26-2.94-2.69-3.56.76-1.24.84-2.87.22-4.19-.63-1.32-1.95-2.28-3.39-2.48-.29-2.49-2.19-4.72-4.6-5.41-.1-2.5-2.03-4.82-4.47-5.38.32-1.29-.48-2.75-1.73-3.19.56-.82,1.12-1.64,1.68-2.45,2.28.86,5.14-.39,6.04-2.66.9-2.27-.32-5.15-2.57-6.08.56-.34,1.03-.8,1.38-1.35.58-.88.86-1.96.73-3-.21-1.69-.473-3.056-2.113-3.556.863-.245,2.53-2.135,2.574-4.01Z" fill="#8d663f" stroke-width="0"/>
    <path d="m165.898,206.422c-.76.91-2.03,1.2-3.22,1.35-1.96.23-3.96.22-5.92-.05-3.88,1.34-9.406,1.414-10.713.92.606.486,1.153,2.05-.267,3.9-.19.25-2.99-1.14-4.31-1.05.28.99-.37,1.61-.37,1.61,0,0-4.78-3.88-7.88-9.23,0,0-10.33-10.13-17.91-25.49-.48-.97-.96-1.99-1.44-3.05,1.69.92,2.96,2.51,4.22,4,7.84,9.24,18.22,16.3,29.69,20.2,5.87,1.99,11.97,3.16,18.08,4.22.66.61.67,1.91.04,2.67Z" fill="#66451a" stroke-width="0"/>
    <path d="m157.525,138.941c-2.77,1.23-6.27-1.24-7.9-1.36-5.757-7.046-11.679-10.454-12.579-10.949l-31.064,11.306c5.256,6.561,27.899,34.401,28.783,34.643,0,1.49.77,2.96,2.03,3.76.59.38,1.27.58,1.97.63v.01c.22,1,.82,1.91,1.68,2.46.16.1.32.19.49.28-.04,1.26.07,2.54.86,3.49.53.63,1.32,1.01,2.15,1.1.13.64.46,1.24.9,1.72.64.68,1.51,1.12,2.42,1.36.26.07.54.11.81.14.55,1.64,1.99,2.95,3.66,3.37.26.45.55.9.9,1.29.51,1.66,1.73,3.14,3.41,3.4,1.78.27,3.57-.96,4.3-2.6.74-1.64.57-3.58-.06-5.26-.07-.18-.14-.36-.22-.53.16-.14.31-.3.45-.47.31-.37.55-.79.73-1.24,1-.76,1.87-1.71,2.53-2.79.76-1.24.84-2.87.22-4.19-.63-1.32-1.95-2.28-3.39-2.48-.29-2.49-2.19-4.72-4.6-5.41-.1-2.5-2.03-4.82-4.47-5.38.32-1.29-.48-2.75-1.73-3.19.56-.82,1.12-1.64,1.68-2.45,2.28.86,5.14-.39,6.04-2.66.9-2.27-.32-5.15-2.57-6.08.56-.34,1.03-.8,1.38-1.35.58-.88.86-1.96.73-3-.21-1.69-.47-3.06-2.11-3.56.86-.24,2.53-2.13,2.57-4.01Zm-9.6,42.85c-.1.24-.23.47-.37.68-.13-.21-.23-.44-.3-.68.23.02.46.01.68-.02,0,.01-.01.01-.01.02Z" fill="#a3c964" stroke-width="0"/>
    <path d="m156.165,187.681c-.03.01-.06.01-.09.01-.03-.05-.06-.1-.09-.15.06.05.12.1.18.14Z" fill="#a3c964" stroke-width="0"/>
    <path d="m139.422,163.745l3.455-4.364c-.038-.901.118-2.011.08-2.912.429.289.651.556.963.996-.144-.42.023-.699-.122-1.119.325.195.502.554.827.749-.59-1.022-1.573-2.372-2.408-3.299-.835-.927-3.323-2.282-3.323-2.282.004-.006.008-.013.012-.019-1.096-.511-2.127-1.161-3.028-1.967l1.907.171c-.261-.266-.522-.532-.784-.798.935.321,1.927.474,2.915.449-.065-.165-.138-.33-.186-.498.208-.019.363-.002.486.042.499-1.45.59-2.997-.245-4.475,1.007.388,2.845-.327,3.903-1.026-.168-.782-.442-1.542-.825-2.244.186.027.372.054.557.081-.074-.223-.148-.445-.222-.668.179.086.358.172.537.258-.081-.238-.162-.476-.242-.714.17.023.341.047.511.07v-.099s-1.666-4.554-2.951-6.642c-1.261-2.049-2.692-4.807-4.239-6.214l-32.209,11.723c-.169,5.993,1.027,12.891,2.927,19.635.743,2.637,1.592,5.24,2.498,7.757.131.363,5.477,4.656,5.477,4.656.221-.595.384-1.155.319-1.849.287.894,1.017,1.634,1.908,1.933,0-.365,0-.73.001-1.095,1.189,1.471,2.153,3.116,2.883,4.861l1.111.837-.125-2.024c.144.488.454,1.452.598,1.941.306-.008.965-.027,1.15-.032-.289-1.332-.31-3.129-.599-4.461.286.288.631,1.032.917,1.32-.058-.404-.158-1.175-.216-1.579.667.62,1.377,1.606,2.044,2.226-.055-.268-.192-.948-.247-1.216.751.535,1.585,1.483,2.337,2.018-.087-.541-.38-1.477-.467-2.018.542.508,1.291,1.411,1.834,1.919,1.859-.147,3.362-.673,4.894-2.791-.172-.493-.055-1.01-.227-1.503.501.247.934.622,1.265,1.072,0,0-.215-1.466-.568-2.089.35.332.7.664,1.05.997-.215-.703-.43-1.406-.645-2.109l-3.272-5.273,2.689,2.31c.805.465,1.799,1.226,2.604,1.691-.147-.412-.294-.823-.441-1.235.533.064,1.039.331,1.392.736.014-.783-.306-1.567-.864-2.118l.812.249c-.137-.203-.308-.849-.446-1.051.677.139,1.348.758,2.035,1.087Z" fill="#33140f" opacity=".4" stroke-width="0"/>
    <path d="m137.002,126.648l-32.686,11.897-.915,3.047c1.204,10.143,3.503,18.934,7.708,25.373l4.586,3.454c.221-.595.384-1.155.319-1.849.287.894,1.017,1.634,1.908,1.933,0-.365,0-.73.001-1.095,1.189,1.471,2.153,3.116,2.883,4.861l1.111.837.04-1.548c.144.488.289.976.433,1.464.492-.014.984-.027,1.476-.041-.289-1.332-.577-2.664-.866-3.996.286.288.573.576.859.864-.058-.404-.115-.809-.173-1.213.667.62,1.334,1.24,2.002,1.86-.055-.268-.11-.535-.165-.803.751.535,1.503,1.07,2.254,1.605-.087-.541-.173-1.082-.26-1.623.542.508,1.084,1.016,1.626,1.524,1.859-.147,3.651-.697,5.183-2.815-.172-.493-.344-.986-.516-1.479.501.247.934.622,1.265,1.072l.126-.069c-.11-.708-.341-1.397-.695-2.02.35.332.7.664,1.05.997-.215-.703-.43-1.406-.645-2.109l-3.086-4.789,2.692,2.121c.805.465,1.61.931,2.415,1.396-.147-.412-.294-.823-.441-1.235.533.064,1.039.331,1.392.736.014-.783-.306-1.567-.864-2.118l.812.249c-.137-.203-.275-.406-.412-.608.73-.151,1.353.433,2.041.763l3.596-4.422c-.038-.901-.075-1.802-.113-2.703.429.289.858.578,1.287.867-.144-.42-.288-.84-.432-1.26.325.195.65.389.976.584-.59-1.022-1.721-2.207-2.556-3.134-.835-.927-3.323-2.282-3.323-2.282.004-.006.008-.013.012-.019-1.096-.511-2.127-1.161-3.028-1.967.636.057,1.272.114,1.907.171-.261-.266-.522-.532-.784-.798.935.321,1.927.474,2.915.449-.065-.165-.138-.33-.186-.498.208-.019.363-.002.486.042.499-1.45.59-2.997-.245-4.475,1.007.388,2.845-.327,3.903-1.026-.168-.782-.442-1.542-.825-2.244.186.027.372.054.557.081-.074-.223-.148-.445-.222-.668.179.086.358.172.537.258-.081-.238-.162-.476-.242-.714.17.023.341.047.511.07v-.099s-1.666-4.554-2.951-6.642c-1.261-2.049-2.692-4.807-4.239-6.214Z" fill="#dcc6ae" stroke-width="0"/>
    <path d="m112.23,160.996c-3.766-5.584-3.287-11.376-.117-16.968.927-1.636,1.692-6.179,1.72-8.947l-9.516,3.463-.915,3.047c1.204,10.143,3.503,18.934,7.708,25.373l4.586,3.454c.221-.595.384-1.155.319-1.849.287.894,1.017,1.634,1.907,1.933,0-.365,0-.73.001-1.095,1.188,1.471,2.153,3.116,2.883,4.861l1.111.837c.013-.516.027-1.032.04-1.548.144.488.289.976.433,1.464.492-.014.984-.027,1.476-.04-.289-1.332-.577-2.664-.866-3.996.286.288.573.576.859.864-.058-.404-.115-.809-.173-1.213.667.62,1.334,1.24,2.002,1.86-.055-.268-.11-.535-.165-.803.751.535,1.503,1.07,2.254,1.605-.087-.541-.173-1.082-.26-1.623.542.508,1.084,1.016,1.626,1.524,1.103-.087,2.18-.326,3.195-.94-3.471-1.029-7.07-2.378-10.251-3.93-3.99-1.945-7.377-3.654-9.859-7.334Z" fill="#95794a" stroke-width="0"/>
  </g>
  <g id="hummingbird__head">
    <path d="m86.197,113.751c3.042,3.594,6.232,9.569,8.363,13.767s3.236,7.749,5.856,11.662c1.218,1.819,2.745,3.676,4.886,4.134,0-.339.002-.678.003-1.017.552.444,1.245.711,1.952.752,1.207-6.564-1.332-13.246-4.597-19.066-2.858-5.094-6.454-9.99-11.475-12.974-2.432-1.446-5.126-2.391-7.879-3.01-2.627-.591-8.251-1.24-10.95-1.094,1.713,1.713,5.614,1.905,7.892,2.671,2.68.902,4.447,2.401,5.949,4.175Z" fill="#33140f" stroke-width="0"/>
    <path d="m140.626,126.456c.122-.51-.333-1.279-.726-1.701.764-1.508-2.355-7.852-3.015-9.002.209-1.105,0-2.177-.308-2.944-.244-.608-1.062-1.653-1.142-1.783.05.02.54.23,1.26.23-.68-.18-1.33-1.45-1.33-1.45.42.15,1.98-.15,1.98-.15,0,0-.75-.14-1.94-.82,0,0-7.17,5.24-12.89,5.8,2.02,2.29,3.65,3.75,5.2,5.23,2.8,2.67,10.431,8.913,12.719,9.195,1.925.237,1.806-1.145.191-2.605Z" fill="#afdb6c" stroke-width="0"/>
    <path d="m132.291,112.243c1.091.648,2.614,2.77,1.725,6.024,3.78,1.971,2.002,4.939.185,5.925-1.307.71-6.869,1.961-11.363,1.129s-8.832-2.487-13.379-2.95c-2.742-.279-5.612-.138-8.126-1.269-1.501-.675-2.773-1.763-4.021-2.836-.553-.475-7.042-6.729-10.661-7.953-.516-.174-1.172-.619-.903-1.093.128-.225.415-.298.673-.323.686-.068,1.379.043,2.068.007s1.423-.254,1.826-.814c.366-.509.386-1.19.671-1.748.491-.96,1.636-1.355,2.676-1.639,5.332-1.455,11.651-3.614,17.164-3.205s20.375,10.097,21.466,10.745Z" fill="#51443b" stroke-width="0"/>
    <path d="m97.311,118.267c-.553-.475-7.042-6.729-10.661-7.953-.516-.174-1.172-.619-.903-1.093.128-.225.415-.298.673-.323.686-.068,1.379.043,2.068.007s1.423-.254,1.826-.814c.366-.509.386-1.19.671-1.748.491-.96,1.636-1.355,2.676-1.639,5.332-1.455,11.651-3.614,17.164-3.205" fill="url(#linear-gradient)" stroke-width="0"/>
    <path d="m109.135,116.968c-.637-1.306-2.305-1.631-4.724-2.536-2.901-1.085-5.226-3.029-7.987-4.376-1.9-.927-3.91-2.18-5.375-3.814-.02.034-.045.064-.064.1-.286.558-.305,1.239-.672,1.748-.403.56-1.138.779-1.826.814-.689.035-1.381-.075-2.068-.007-.258.026-.545.098-.673.323-.268.474.388.919.903,1.093,3.62,1.224,10.109,7.478,10.661,7.953,1.248,1.073-1.805-2.185-.304-1.51,2.514,1.13,12.639,1.26,12.127.211Z" fill="#606060" stroke-width="0"/>
    <path d="m94.576,109.364c-.089.42-.841.62-1.461.42s-5.54-.221-6.212-.221-7.823-.237-9.522-.593-3.2-1.027-5.532-1.264-16.477-1.541-21.732-1.383-12.411.341-14.622.421c-6.732.242-9.683-.956-9.883-1.071s12.888-.614,16.286-1.088,43.147,1.225,44.53,1.501,7.106,2.858,7.106,2.858" fill="#1e1915" stroke-width="0"/>
    <path d="m93.535,108.944s-2.162-.776-3.604-1.109-13.307-1.275-14.97-1.497-11.366-1.053-15.303-1.053h-17.854c-1.331,0-15.414.388-16.19.388s-3.382,0-2.994-.388,12.919-1.941,17.133-2.44,9.537-.554,15.026-.554c5.545-.444,25.561-.277,25.561-.277,0,0,12.161,5.47,13.196,6.067s1.13.863,1.041,1.284" fill="#5c5f72" stroke-width="0"/>
    <path d="m136.286,104.146c-.96-.95-5.44-4.6-10.8-7.7-5.37-3.1-11.52-3.55-17.95-3.55-6.75,0-10.57,1.12-12.66,1.81-2.09.69-7.63,4.41-8.71,5.03-1.08.63-3.49.96-5.64,1.43-2.14.48-4.22,2.12-4.22,2.12,1.31.74,4.2,2.86,6.6,3.15,1.921.22,3.839-.05,5.706-.336.058.007.115.016.172.023.054.006.107.013.161.019h0c.024.003.049.007.072.011.199.035.396.047.593.063.515.502,1.188.841,1.906.91l-.21-.21c.29.16.62.23.95.2-.24-.05-.44-.22-.53-.45,1.37.24,2.74.47,4.11.7-.17-.11-.35-.23-.52-.34.6.18,1.23.23,1.85.14-.16-.1-.31-.2-.46-.3.27,0,.55-.04.81-.12-.21-.15-.41-.3-.61-.45.51.02,1.02-.2,1.36-.58,2.17.03,4.13-.05,4.68-.52,2.37-2.03,5.48-3.39,10.37-1.64,1.4.5,3.44,2.33,5.18,4.72.12.16.23.33.34.5.73.32,1.52.48,2.32.46.33,0,.68-.03.99.1.44.19.68.67.97,1.05.68.89,1.88,1.34,2.98,1.12.54.6,1.14,1.25,1.86,1.57.28.14.57.22.89.24.86.05,1.68-.43,2.25-1.07.31-.34.56-.74.78-1.15,2.1-1.21,3.53-2.26,3.53-2.26.82,0,2.79-2.08,2.79-2.08,0,0-.96-1.66-1.91-2.61Z" fill="#82a436" stroke-width="0"/>
    <path d="m118.836,108.776c-.13-.05-.25-.11-.38-.17" fill="#454c22" stroke-width="0"/>
    <path d="m127.73,100.646c.29-.01.58-.03.87-.04-.69-.23-1.38-.46-2.07-.69.67.17,1.38.14,2.04-.07-3.23-2.48-7.63-3.35-11.56-2.3.61.41,1.22.82,1.83,1.24-.47.11-.97.12-1.45.02.34.5.93.83,1.54.87-2.34.33-4.6-.85-6.88-1.44-4.67-1.19-9.59.07-14.19,1.53-4.6,1.45-9.3,3.13-14.1,2.73-1.55-.12-3.07-.46-4.57-.9.43-.17.88-.33,1.34-.43,2.14-.47,4.55-.8,5.64-1.43,1.08-.62,6.62-4.34,8.71-5.03s5.9-1.81,12.65-1.81c6.44,0,12.59.45,17.95,3.55,3.42,1.97,6.48,4.17,8.49,5.74-.29.16-.61.22-.95.16.51.03.99.37,1.17.85-2.15-.85-4.3-1.7-6.46-2.55Z" fill="#494a44" stroke-width="0"/>
    <g clip-path="url(#clippath)">
      <g>
        <path d="m143.83,133.285c-2.075-2.907-4.183-5.792-6.125-8.791-.599-.926-1.18-1.865-1.761-2.806l-32.919,23.96c.112.135.225.268.336.403,2.194,2.658,4.356,5.344,6.426,8.1-.199-.577-.438-1.179-.739-1.81,2.399,2.264,4.677,3.341,5.802,2.522.999-.727.855-2.78-.183-5.317,2.095,1.767,4.004,2.536,5.003,1.808,1.125-.819.8-3.317-.617-6.296,2.399,2.264,4.677,3.341,5.802,2.522.999-.727.855-2.78-.183-5.317,2.095,1.767,4.004,2.536,5.003,1.808,1.125-.819.8-3.317-.617-6.296,2.399,2.264,4.677,3.341,5.802,2.522.999-.727.855-2.78-.183-5.317,2.095,1.767,4.004,2.536,5.003,1.808,1.125-.819.8-3.317-.617-6.296,1.803,1.702,3.537,2.732,4.765,2.792Z" fill="#970102" stroke-width="0"/>
        <path d="m137.705,124.494c-.923-1.425-1.804-2.881-2.704-4.324l-33.12,24.106c.493.592.989,1.181,1.48,1.775,2.368,2.869,4.694,5.776,6.912,8.763.73.216,1.349.194,1.788-.126.999-.727.855-2.78-.183-5.317,2.095,1.767,4.004,2.536,5.003,1.808,1.125-.819.8-3.317-.617-6.296,2.399,2.264,4.677,3.341,5.802,2.522.999-.727.855-2.78-.183-5.317,2.095,1.767,4.004,2.536,5.003,1.808,1.125-.819.8-3.317-.617-6.296,2.399,2.264,4.676,3.341,5.802,2.522.999-.727.855-2.78-.183-5.317,2.095,1.767,4.004,2.536,5.003,1.808,1.125-.819.8-3.317-.617-6.296,2.399,2.264,4.677,3.341,5.802,2.522.332-.242.527-.641.616-1.145-1.701-2.374-3.401-4.75-4.989-7.202Z" fill="#6d0107" stroke-width="0"/>
        <path d="m137.705,124.494c-1.16-1.792-2.256-3.632-3.404-5.433l-33.259,24.207c.774.927,1.551,1.851,2.32,2.783,2.085,2.527,4.139,5.082,6.115,7.695.741.225,1.37.207,1.814-.116.999-.727.855-2.78-.183-5.317,2.095,1.767,4.004,2.536,5.003,1.808,1.125-.819.8-3.317-.617-6.296,2.399,2.264,4.677,3.341,5.802,2.522.999-.727.855-2.78-.183-5.317,2.095,1.767,4.004,2.536,5.003,1.808,1.125-.819.8-3.317-.617-6.296,2.399,2.264,4.676,3.341,5.802,2.522.999-.727.855-2.78-.183-5.317,2.095,1.767,4.004,2.536,5.003,1.808,1.125-.819.8-3.317-.617-6.296,2.399,2.264,4.677,3.341,5.802,2.522.336-.245.532-.649.619-1.161-1.443-2.018-2.873-4.045-4.221-6.127Z" fill="#970102" stroke-width="0"/>
        <path d="m139.454,127.095c-.592-.861-1.181-1.724-1.749-2.601-1.788-2.761-3.419-5.64-5.335-8.305l-33.547,24.417c1.516,1.812,3.035,3.623,4.539,5.445,1.308,1.585,2.601,3.182,3.874,4.796-.039-1.16-.476-2.676-1.276-4.358,2.399,2.264,4.677,3.341,5.802,2.522.999-.727.855-2.78-.183-5.317,2.095,1.767,4.004,2.536,5.003,1.808,1.125-.819.8-3.317-.617-6.296,2.399,2.264,4.676,3.341,5.802,2.522.999-.727.855-2.78-.183-5.317,2.095,1.767,4.004,2.536,5.003,1.808,1.125-.819.8-3.317-.617-6.296,2.399,2.264,4.677,3.341,5.802,2.522.999-.727.855-2.78-.183-5.317,2.095,1.767,4.004,2.536,5.003,1.808,1.125-.819.8-3.317-.617-6.296,1.241,1.171,2.445,2.016,3.479,2.454Z" fill="#6d0107" stroke-width="0"/>
        <path d="m138.761,126.065c-.352-.523-.713-1.041-1.056-1.57-2.026-3.128-3.852-6.407-6.119-9.354l-33.6,24.456c1.795,2.15,3.594,4.296,5.376,6.455,1.047,1.268,2.081,2.546,3.107,3.832-.017-1.171-.458-2.725-1.28-4.453,2.399,2.264,4.676,3.341,5.802,2.522.999-.727.855-2.78-.183-5.317,2.095,1.767,4.004,2.536,5.003,1.808,1.125-.819.8-3.317-.617-6.296,2.399,2.264,4.677,3.341,5.802,2.522.999-.727.855-2.78-.183-5.317,2.095,1.767,4.004,2.536,5.003,1.808,1.125-.819.8-3.317-.617-6.296,2.399,2.264,4.676,3.341,5.802,2.522.999-.727.855-2.78-.183-5.317,2.095,1.767,4.004,2.536,5.003,1.808,1.125-.819.8-3.317-.617-6.296,1.273,1.201,2.506,2.055,3.556,2.482Z" fill="#970102" stroke-width="0"/>
        <path d="m129.271,112.465l-33.539,24.411c2.53,3.069,5.098,6.107,7.63,9.175.211.256.419.514.63.77,1.008.449,1.858.513,2.42.104.999-.727.855-2.78-.183-5.317,2.095,1.767,4.004,2.536,5.003,1.808,1.125-.819.8-3.317-.617-6.296,2.399,2.264,4.677,3.341,5.802,2.522.999-.727.855-2.78-.183-5.317,2.095,1.767,4.004,2.536,5.003,1.808,1.125-.819.8-3.317-.617-6.296,2.399,2.264,4.677,3.341,5.802,2.522.999-.727.855-2.78-.183-5.317,2.095,1.767,4.004,2.536,5.003,1.808,1.125-.819.8-3.317-.617-6.296,2.399,2.264,4.677,3.341,5.802,2.522.418-.304.625-.85.661-1.557-2.415-3.828-4.642-7.798-7.817-11.057Z" fill="#6d0107" stroke-width="0"/>
        <path d="m128.754,111.926c-.138-.134-.272-.272-.41-.406l-33.45,24.346c2.692,3.29,5.441,6.532,8.151,9.807,1.083.519,2.001.626,2.595.194.999-.727.855-2.78-.183-5.317,2.095,1.767,4.004,2.536,5.003,1.808,1.125-.819.8-3.317-.617-6.296,2.399,2.264,4.677,3.341,5.802,2.522.999-.727.855-2.78-.183-5.317,2.095,1.767,4.004,2.536,5.003,1.808,1.125-.819.8-3.317-.617-6.296,2.399,2.264,4.677,3.341,5.802,2.522.999-.727.855-2.78-.183-5.317,2.095,1.767,4.004,2.536,5.003,1.808,1.125-.819.8-3.317-.617-6.296,2.399,2.264,4.677,3.341,5.802,2.522.45-.327.656-.933.666-1.72-2.262-3.653-4.453-7.36-7.568-10.373Z" fill="#970102" stroke-width="0"/>
        <path d="m134.373,119.174c-1.644-2.587-3.394-5.095-5.618-7.247-.988-.956-1.963-1.923-2.927-2.9l-33.163,24.137c.617.739,1.229,1.482,1.839,2.23,2.373,2.912,4.795,5.783,7.2,8.669.448-1.154.029-3.214-1.105-5.597,2.399,2.264,4.677,3.341,5.802,2.522.999-.727.855-2.78-.183-5.317,2.095,1.767,4.004,2.536,5.003,1.808,1.125-.819.8-3.317-.617-6.296,2.399,2.264,4.676,3.341,5.802,2.522.999-.727.855-2.78-.183-5.317,2.095,1.767,4.004,2.536,5.003,1.808,1.125-.819.8-3.317-.617-6.296,2.399,2.264,4.677,3.341,5.802,2.522.999-.727.855-2.78-.183-5.317,2.095,1.767,4.004,2.536,5.003,1.808,1.125-.819.8-3.317-.617-6.296,1.356,1.28,2.666,2.162,3.758,2.555Z" fill="#6d0107" stroke-width="0"/>
        <path d="m133.719,118.157c-1.458-2.224-3.032-4.362-4.964-6.231-1.305-1.263-2.583-2.551-3.847-3.851l-33.095,24.088c.909,1.065,1.804,2.142,2.691,3.23,2.107,2.586,4.253,5.14,6.391,7.7.508-1.134.096-3.24-1.067-5.686,2.399,2.264,4.676,3.341,5.802,2.522.999-.727.855-2.78-.183-5.317,2.095,1.767,4.004,2.536,5.003,1.808,1.125-.819.8-3.317-.617-6.296,2.399,2.264,4.677,3.341,5.802,2.522.999-.727.855-2.78-.183-5.317,2.095,1.767,4.004,2.536,5.003,1.808,1.125-.819.8-3.317-.617-6.296,2.399,2.264,4.677,3.341,5.802,2.522.999-.727.855-2.78-.183-5.317,2.095,1.767,4.004,2.536,5.003,1.808,1.125-.819.8-3.317-.617-6.296,1.405,1.326,2.76,2.228,3.875,2.598Z" fill="#970102" stroke-width="0"/>
        <path d="m128.754,111.926c-2.143-2.073-4.228-4.197-6.259-6.372l-32.981,24.005c.192.21.385.419.577.629,1.534,1.685,2.973,3.439,4.412,5.205.302.371.612.736.916,1.106-.019-.041-.034-.081-.054-.122,2.399,2.264,4.677,3.341,5.802,2.522.999-.727.855-2.78-.183-5.317,2.095,1.767,4.004,2.536,5.003,1.808,1.125-.819.8-3.317-.617-6.296,2.399,2.264,4.676,3.341,5.802,2.522.999-.727.855-2.78-.183-5.317,2.095,1.767,4.004,2.536,5.003,1.808,1.125-.819.8-3.317-.617-6.296,2.399,2.264,4.677,3.341,5.802,2.522.999-.727.855-2.78-.183-5.317,2.095,1.767,4.004,2.536,5.003,1.808,1.125-.819.8-3.317-.617-6.296,2.399,2.264,4.676,3.341,5.802,2.522.419-.305.626-.854.661-1.564-.942-1.253-1.95-2.458-3.091-3.561Z" fill="#6d0107" stroke-width="0"/>
        <path d="m128.754,111.926c-2.459-2.379-4.836-4.83-7.147-7.345l-32.983,24.006c.49.533.98,1.066,1.467,1.601,1.534,1.685,2.973,3.439,4.412,5.205.088.108.178.213.266.321-.06-.133-.11-.261-.174-.396,2.399,2.264,4.677,3.341,5.802,2.522.999-.727.855-2.78-.183-5.317,2.095,1.767,4.004,2.536,5.003,1.808,1.125-.819.8-3.317-.617-6.296,2.399,2.264,4.676,3.341,5.802,2.522.999-.727.855-2.78-.183-5.317,2.095,1.767,4.004,2.536,5.003,1.808,1.125-.819.8-3.317-.617-6.296,2.399,2.264,4.677,3.341,5.802,2.522.999-.727.855-2.78-.183-5.317,2.095,1.767,4.004,2.536,5.003,1.808,1.125-.819.8-3.317-.617-6.296,2.399,2.264,4.676,3.341,5.802,2.522.407-.296.615-.821.66-1.501-.722-.894-1.483-1.758-2.319-2.566Z" fill="#970102" stroke-width="0"/>
        <path d="m127.82,111c-2.971-2.916-5.836-5.928-8.586-9.051l-32.971,23.998c1.25,1.437,2.546,2.834,3.828,4.242,1.534,1.685,2.973,3.439,4.412,5.205.397.487.803.967,1.203,1.451.932-.935.588-3.313-.759-6.143,2.399,2.264,4.677,3.341,5.802,2.522.999-.727.855-2.78-.183-5.317,2.095,1.767,4.004,2.536,5.003,1.808,1.125-.819.8-3.317-.617-6.296,2.399,2.264,4.677,3.341,5.802,2.522.999-.727.855-2.78-.183-5.317,2.095,1.767,4.004,2.536,5.003,1.808,1.125-.819.8-3.317-.617-6.296,2.399,2.264,4.676,3.341,5.802,2.522.999-.727.855-2.78-.183-5.317,2.095,1.767,4.004,2.536,5.003,1.808,1.125-.819.8-3.317-.617-6.296,1,.944,1.973,1.666,2.856,2.145Z" fill="#6d0107" stroke-width="0"/>
        <path d="m126.278,109.472c-2.732-2.748-5.366-5.586-7.905-8.516l-32.967,23.995c.094.114.184.231.279.344,1.42,1.675,2.928,3.271,4.405,4.895,1.534,1.685,2.973,3.439,4.412,5.205.124.152.251.302.376.454,1.007-.891.672-3.315-.702-6.204,2.399,2.264,4.677,3.341,5.802,2.522.999-.727.855-2.78-.183-5.317,2.095,1.767,4.004,2.536,5.003,1.808,1.125-.819.8-3.317-.617-6.296,2.399,2.264,4.676,3.341,5.802,2.522.999-.727.855-2.78-.183-5.317,2.095,1.767,4.004,2.536,5.003,1.808,1.125-.819.8-3.317-.617-6.296,2.399,2.264,4.677,3.341,5.802,2.522.999-.727.855-2.78-.183-5.317,2.095,1.767,4.004,2.536,5.003,1.808,1.125-.819.8-3.317-.617-6.296.716.676,1.417,1.231,2.084,1.676Z" fill="#970102" stroke-width="0"/>
        <path d="m94.56,123.691c1.69.513,3.394,1.118,4.206,2.278.735,1.05,1.173,2.353-.088,3.65-.733.754-3.457.698-3.457.698l-.661-6.627Z" fill="#33140f" stroke-width="0"/>
        <path d="m116.998,99.37c-.302-.358-.6-.723-.897-1.087l-32.835,23.899c.771,1.063,1.568,2.107,2.42,3.112,1.42,1.675,2.928,3.271,4.405,4.895.155.171.301.349.454.521-.212-.667-.498-1.382-.853-2.128,2.399,2.264,4.677,3.341,5.802,2.522.999-.727.855-2.78-.183-5.317,2.095,1.767,4.004,2.536,5.003,1.808,1.125-.819.8-3.317-.617-6.296,2.399,2.264,4.677,3.341,5.802,2.522.999-.727.855-2.78-.183-5.317,2.095,1.767,4.004,2.536,5.003,1.808,1.125-.819.8-3.317-.617-6.296,2.399,2.264,4.677,3.341,5.802,2.522.999-.727.855-2.78-.183-5.317,2.095,1.767,4.004,2.536,5.003,1.808,1.125-.819.8-3.317-.617-6.296,2.399,2.264,4.677,3.341,5.802,2.522.104-.076.189-.174.269-.278-3.047-3.089-5.977-6.286-8.781-9.608Z" fill="#6d0107" stroke-width="0"/>
        <path d="m116.998,99.37c-.582-.69-1.154-1.396-1.724-2.105l-32.769,23.851c1.004,1.434,2.046,2.839,3.18,4.178,1.343,1.584,2.764,3.098,4.164,4.631-.218-.745-.523-1.55-.928-2.402,2.399,2.264,4.677,3.341,5.802,2.522.999-.727.855-2.78-.183-5.317,2.095,1.767,4.004,2.536,5.003,1.808,1.125-.819.8-3.317-.617-6.296,2.399,2.264,4.677,3.341,5.802,2.522.999-.727.855-2.78-.183-5.317,2.095,1.767,4.004,2.536,5.003,1.808,1.125-.819.8-3.317-.617-6.296,2.399,2.264,4.677,3.341,5.802,2.522.999-.727.855-2.78-.183-5.317,2.095,1.767,4.004,2.536,5.003,1.808,1.125-.819.8-3.317-.617-6.296,2.399,2.264,4.677,3.341,5.802,2.522.055-.04.095-.1.143-.148-2.724-2.802-5.359-5.687-7.885-8.68Z" fill="#970102" stroke-width="0"/>
        <path d="m94.967,119.947c1.69.513,3.394,1.118,4.206,2.278.735,1.05,1.173,2.353-.088,3.65-.733.754-3.457.698-3.457.698l-.661-6.627Z" fill="#33140f" stroke-width="0"/>
        <path d="m116.998,99.37c-1.242-1.471-2.437-3.007-3.666-4.515l-32.58,23.713c.208.302.417.603.622.905,1.356,2.003,2.746,3.973,4.312,5.82,1.295,1.528,2.662,2.99,4.014,4.467.163-.045.314-.111.446-.208,1.125-.819.8-3.317-.617-6.296,2.399,2.264,4.677,3.341,5.802,2.522.999-.727.855-2.78-.183-5.317,2.095,1.767,4.004,2.536,5.003,1.808,1.125-.819.8-3.317-.617-6.296,2.399,2.264,4.676,3.341,5.802,2.522.999-.727.855-2.78-.183-5.317,2.095,1.767,4.004,2.536,5.003,1.808,1.125-.819.8-3.317-.617-6.296,2.399,2.264,4.677,3.341,5.802,2.522.999-.727.855-2.78-.183-5.317,2.095,1.767,4.004,2.536,5.003,1.808.906-.66.858-2.417.07-4.63-1.094-1.22-2.175-2.452-3.234-3.706Z" fill="#6d0107" stroke-width="0"/>
        <path d="m116.998,99.37c-1.521-1.802-2.975-3.699-4.504-5.525l-32.502,23.656c.471.65.932,1.309,1.381,1.973,1.356,2.003,2.746,3.973,4.312,5.82.992,1.171,2.028,2.303,3.067,3.433.231-.038.445-.104.623-.233,1.125-.819.8-3.317-.617-6.296,2.399,2.264,4.677,3.341,5.802,2.522.999-.727.855-2.78-.183-5.317,2.095,1.767,4.004,2.536,5.003,1.808,1.125-.819.8-3.317-.617-6.296,2.399,2.264,4.676,3.341,5.802,2.522.999-.727.855-2.78-.183-5.317,2.095,1.767,4.004,2.536,5.003,1.808,1.125-.819.8-3.317-.617-6.296,2.399,2.264,4.677,3.341,5.802,2.522.999-.727.855-2.78-.183-5.317,2.095,1.767,4.004,2.536,5.003,1.808.861-.627.867-2.241.19-4.297-.871-.983-1.735-1.974-2.583-2.98Z" fill="#970102" stroke-width="0"/>
      </g>
    </g>
    <path d="m93.224,115.667c1.69.513,3.394,1.118,4.206,2.278.735,1.05,1.173,2.353-.088,3.65-.733.754-3.457.698-3.457.698l-.661-6.627Z" fill="#33140f" stroke-width="0"/>
    <path d="m106.092,116.16c-.728-.162-1.447-.315-2.156-.497l-1.748,2.264c.86.983,1.517,2.127,2.716,2.703,1.538.739,2.695.47,3.537-.167,1.402-1.06,1.223-2.366.694-3.495-1.019-.23-2.012-.579-3.043-.809Z" fill="#33140f" opacity=".4" stroke-width="0"/>
    <path d="m107.457,116.114c-1.087-.525-2.2-.989-3.315-1.45l-2.234,3.159c.86.983,1.557,1.706,2.755,2.283,1.538.739,2.695.47,3.537-.167,1.235-.933,1.242-2.057.867-3.083-.543-.236-1.08-.485-1.61-.742Z" fill="#606060" stroke-width="0"/>
    <path d="m101.136,114.921l-2.199,1.155c.371,1.25.492,2.561,1.34,3.582,1.088,1.31,2.25,1.547,3.279,1.319,1.771-.392,2.122-1.724,2.085-3.008-.004-.135-.023-.271-.047-.407-1.554-.763-3.026-1.666-4.458-2.642Z" fill="#33140f" opacity=".4" stroke-width="0"/>
    <path d="m102.327,113.48c2.734,1.36,3.273,2.496,3.314,3.915.037,1.284-.314,2.616-2.085,3.008-1.029.228-2.191-.009-3.279-1.319-.848-1.021-1.18-1.967-1.551-3.217l3.601-2.386Z" fill="#606060" stroke-width="0"/>
    <path d="m99.667,114.224c.932,1.119,1.832,2.309,1.865,3.476.031,1.056-.258,2.152-1.715,2.475-.847.187-1.803-.007-2.698-1.085-.698-.84-.797-1.919-1.103-2.947l3.651-1.918Z" fill="#33140f" opacity=".4" stroke-width="0"/>
    <path d="m99.667,113.751c.932,1.119,1.832,2.309,1.865,3.476.031,1.056-.258,2.152-1.715,2.475-.847.187-1.803-.007-2.698-1.085-.698-.84-.971-1.619-1.276-2.647l3.824-2.218Z" fill="#606060" stroke-width="0"/>
    <g>
      <ellipse cx="109.317" cy="107.637" rx="4.506" ry="4.246" fill="#251714" stroke-width="0"/>
      <ellipse cx="109.317" cy="107.637" rx="2.595" ry="2.444" stroke-width="0"/>
      <path d="m111.341,105.899c0,.848-.684,1.535-1.31,1.535s-.955-.687-.955-1.535.07-1.535.695-1.535,1.569.687,1.569,1.535Z" fill="#4a4d5c" stroke-width="0"/>
      <circle cx="109.506" cy="105.899" r=".429" fill="#fff" stroke-width="0"/>
      <path d="m103.765,110.976c.169.017.299.15.418.271.839.855,1.884,1.506,3.022,1.883-.396-.131-.973-.012-1.407-.115-.489-.117-.961-.311-1.389-.575-.261-.161-.75-.402-.926-.664-.172-.257-.166-.846.282-.8Z" fill="#35221c" stroke-width="0"/>
      <path d="m115.102,107.201c0-.026.006-.049.006-.076-.002-.314.604-2.141-2.525-3.81-1.256-.67-2.844-.858-4.237-.563-2.812.596-5.387,2.251-7.099,4.56-.736.575.592,1.048,1.111,1.122.055.008.11.003.165.004.757.24,1.65-.02,2.144-.643.282-.356.432-.795.651-1.193.838-1.517,3.498-2.499,5.218-2.28,1.72.219,2.941,1.215,3.418,2.325.086.2.301,1.714-.194,2.898.301.066,1.314-.803,1.342-2.339.005.009.012.019.017.028-.004-.013-.012-.023-.016-.035Z" fill="#7b6e66" stroke-width="0"/>
      <path d="m102.371,108.418c.812.116,1.694-.568,1.994-1.053.302-.487.915-1.535,1.302-1.884,1.486-1.342,3.003-1.625,4.025-1.599.493.012,1.931.02,2.964.696,1.204.787,2.045,1.741,2.475,2.642-.991-2.86-3.661-3.662-5.156-3.738-2.036-.103-3.223.47-3.772.82-1.203.766-1.594,1.292-2.124,1.927-.308.369-.62.796-1.09.897-.257.055-.522,0-.782-.033s-.541-.044-.768.086c-1.098.628.379,1.161.933,1.24Z" fill="#35221c" stroke-width="0"/>
      <path d="m104.701,108.832c1.025,3.631,6.529,4.193,8.588,1.249.641-.982.832-2.239.678-3.448.357,1.172.284,2.522-.35,3.648-1.968,3.418-8.381,2.674-8.916-1.448h0Z" fill="#927f7b" stroke-width="0"/>
    </g>
  </g>
</svg>