<?xml version="1.0" encoding="UTF-8"?>
<svg id="Layer_1" xmlns="http://www.w3.org/2000/svg" width="72" height="72" viewBox="0 0 72 72">
  <ellipse cx="14.718" cy="14.587" rx="10.062" ry="9.706" transform="translate(-2.384 26.289) rotate(-79.125)" fill="#009646"/>
  <path d="M8.445,12.82c-.004-.4.03-.806.109-1.215.632-3.292,3.813-5.447,7.105-4.815,3.292.632,5.447,3.813,4.815,7.105-.078.408-.197.798-.349,1.168l-11.679-2.244Z"/>
  <path d="M18.067,14.668c.619-3.282-.905-6.328-3.416-6.81-2.511-.482-5.056,1.782-5.697,5.06l9.113,1.751Z" fill="#005212"/>
  <ellipse cx="57.282" cy="14.587" rx="9.706" ry="10.062" transform="translate(-1.723 11.069) rotate(-10.875)" fill="#009646"/>
  <path d="M63.555,12.82c.004-.4-.03-.806-.109-1.215-.632-3.292-3.813-5.447-7.105-4.815s-5.447,3.813-4.815,7.105c.078.408.197.798.349,1.168l11.679-2.244Z"/>
  <path d="M53.933,14.668c-.619-3.282.905-6.328,3.416-6.81,2.511-.482,5.056,1.782,5.697,5.06l-9.113,1.751Z" fill="#005212"/>
  <path d="M72,29.798c0,24.071-8.36,37.665-36,37.665S0,53.869,0,29.798s27.466-11.835,36-11.835,36-12.236,36,11.835Z" fill="#009646"/>
  <path d="M9.383,59.419c5.624,5.251,14.143,8.044,26.617,8.044s20.993-2.793,26.617-8.044c-3.044-13.268-10.791-20.536-26.617-20.536s-23.573,7.269-26.617,20.536Z" fill="#39a36b"/>
  <path d="M64.246,19.16c-7.399-5.05-16.727-10.253-28.246-10.253S15.153,14.11,7.754,19.16h56.492Z" fill="#009646"/>
  <g>
    <path d="M64.246,31.621c1.937,1.86,2.294,4.196,2.682,6.752-2.87-.61-3.819-4.319-2.682-6.752h0Z" fill="#ffe070"/>
    <path d="M6.413,34.997s3.29,2.24,6.483.196c7.16-4.584,10.93-16.033,23.104-16.033" fill="none" stroke="#ffe070" stroke-miterlimit="10" stroke-width="2.25"/>
    <path d="M7.754,31.621c1.137,2.431.188,6.143-2.682,6.752.388-2.555.746-4.892,2.682-6.752h0Z" fill="#ffe070"/>
  </g>
  <g>
    <path d="M7.754,31.621c1.137,2.431.188,6.143-2.682,6.752.388-2.555.746-4.892,2.682-6.752h0Z" fill="#ffe070"/>
    <path d="M65.587,34.997s-3.29,2.24-6.483.196c-7.16-4.584-10.93-16.033-23.104-16.033" fill="none" stroke="#ffe070" stroke-miterlimit="10" stroke-width="2.25"/>
    <path d="M64.246,31.621c1.937,1.86,2.294,4.196,2.682,6.752-2.87-.61-3.819-4.319-2.682-6.752h0Z" fill="#ffe070"/>
  </g>
</svg>